<?xml version="1.0"?>
<svg xmlns="http://www.w3.org/2000/svg" xmlns:xlink="http://www.w3.org/1999/xlink" xmlns:svgjs="http://svgjs.com/svgjs" version="1.1" width="512" height="512" x="0" y="0" viewBox="0 0 477.867 477.867" style="enable-background:new 0 0 512 512" xml:space="preserve" class=""><g>
<g xmlns="http://www.w3.org/2000/svg">
	<g>
		<path d="M460.8,238.93H358.4c-7.828,0-14.652,5.326-16.555,12.919l-28.45,113.783L272.947,15.1    c-1.089-9.363-9.561-16.07-18.924-14.981c-7.323,0.852-13.271,6.308-14.749,13.53L185.19,284.157l-32.188-117.982    c-2.465-9.098-11.839-14.474-20.936-12.009c-5.181,1.404-9.399,5.163-11.388,10.148L90.846,238.93H17.067    C7.641,238.93,0,246.571,0,255.996s7.641,17.067,17.067,17.067H102.4c6.984,0.003,13.264-4.25,15.855-10.735l15.206-38.042    l37.803,138.598c2.025,7.427,8.771,12.58,16.469,12.578h0.58c7.892-0.268,14.57-5.915,16.145-13.653l47.002-235.093    l38.792,336.026c0.939,8.196,7.606,14.547,15.838,15.087l1.109,0.034c7.827-0.01,14.644-5.342,16.538-12.937l47.992-191.863H460.8    c9.426,0,17.067-7.641,17.067-17.067S470.226,238.93,460.8,238.93z" fill="#e6007a" data-original="#000000" style=""/>
	</g>
</g>
<g xmlns="http://www.w3.org/2000/svg">
</g>
<g xmlns="http://www.w3.org/2000/svg">
</g>
<g xmlns="http://www.w3.org/2000/svg">
</g>
<g xmlns="http://www.w3.org/2000/svg">
</g>
<g xmlns="http://www.w3.org/2000/svg">
</g>
<g xmlns="http://www.w3.org/2000/svg">
</g>
<g xmlns="http://www.w3.org/2000/svg">
</g>
<g xmlns="http://www.w3.org/2000/svg">
</g>
<g xmlns="http://www.w3.org/2000/svg">
</g>
<g xmlns="http://www.w3.org/2000/svg">
</g>
<g xmlns="http://www.w3.org/2000/svg">
</g>
<g xmlns="http://www.w3.org/2000/svg">
</g>
<g xmlns="http://www.w3.org/2000/svg">
</g>
<g xmlns="http://www.w3.org/2000/svg">
</g>
<g xmlns="http://www.w3.org/2000/svg">
</g>
</g></svg>
